<svg width="15" height="15" viewBox="0 0 15 15" fill="none" xmlns="http://www.w3.org/2000/svg">
<g clip-path="url(#clip0_8360_21432)">
<g clip-path="url(#clip1_8360_21432)">
<path d="M14.5827 7.91674C14.5827 7.05758 14.4298 6.23383 14.1493 5.47174C13.9577 7.71716 12.7606 8.87049 11.5098 8.33341C10.3381 7.83008 11.1277 5.86799 11.186 4.93175C11.2843 3.34466 11.181 1.52799 8.2981 0.0175781C9.49602 2.30924 8.43685 3.73299 7.32602 3.81966C6.09352 3.91591 4.96477 2.76049 5.38143 0.885495C4.03227 1.87966 3.9931 3.55299 4.40935 4.63549C4.84352 5.76383 4.39185 6.70133 3.3331 6.80549C2.14977 6.92216 1.49227 5.53841 2.09852 3.33341C1.04935 4.56883 0.416016 6.16883 0.416016 7.91674C0.416016 11.8288 3.58727 15.0001 7.49935 15.0001C11.4114 15.0001 14.5827 11.8288 14.5827 7.91674Z" fill="#F4900C"/>
<path d="M11.8308 9.9995C11.8925 11.2845 10.7638 11.7882 10.1562 11.5449C9.27875 11.1937 9.51417 10.5903 9.28833 9.34033C9.0625 8.09033 8.19458 7.22242 6.91 6.84033C7.8475 9.47908 6.39042 10.4516 5.62667 10.6253C4.84667 10.8028 4.06292 10.6249 3.97333 8.95575C3.06333 9.86158 2.5 11.1149 2.5 12.4999C2.5 12.6532 2.50958 12.8041 2.52292 12.9541C3.80208 14.2182 5.55917 14.9999 7.5 14.9999C9.44083 14.9999 11.1979 14.2182 12.4771 12.9541C12.4904 12.8041 12.5 12.6532 12.5 12.4999C12.5 11.5887 12.2567 10.7349 11.8308 9.9995Z" fill="#FFCC4D"/>
</g>
</g>
<defs>
<clipPath id="clip0_8360_21432">
<rect width="15" height="15" fill="white"/>
</clipPath>
<clipPath id="clip1_8360_21432">
<rect width="15" height="15" fill="white"/>
</clipPath>
</defs>
</svg>
