<svg width="60" height="38" viewBox="0 0 60 38" fill="none" xmlns="http://www.w3.org/2000/svg">
<path d="M32.373 15H44.9902C45.1465 15 45.2962 15.026 45.4395 15.0781C45.5827 15.1302 45.7129 15.2083 45.8301 15.3125C45.9473 15.4167 46.0417 15.5371 46.1133 15.6738C46.1849 15.8105 46.2272 15.9505 46.2402 16.0938C46.2402 16.1068 46.2402 16.1133 46.2402 16.1133L47.3535 26.1133C47.3665 26.2044 47.3665 26.2923 47.3535 26.377C47.3405 26.4616 47.321 26.543 47.2949 26.6211C47.2689 26.7122 47.2363 26.7936 47.1973 26.8652C47.1582 26.9368 47.1061 27.0052 47.041 27.0703C46.9889 27.1484 46.9271 27.2135 46.8555 27.2656C46.7839 27.3177 46.709 27.3568 46.6309 27.3828C46.5397 27.4219 46.4518 27.4512 46.3672 27.4707C46.2826 27.4902 46.2012 27.5 46.123 27.5H31.2402C31.1621 27.5 31.0807 27.4902 30.9961 27.4707C30.9115 27.4512 30.8236 27.4219 30.7324 27.3828C30.6543 27.3568 30.5794 27.3177 30.5078 27.2656C30.4362 27.2135 30.3743 27.1484 30.3223 27.0703C30.2572 27.0052 30.2051 26.9368 30.166 26.8652C30.127 26.7936 30.0944 26.7122 30.0684 26.6211C30.0423 26.543 30.0228 26.4616 30.0098 26.377C29.9967 26.2923 29.9967 26.2044 30.0098 26.1133L31.123 16.1133C31.123 16.1133 31.123 16.1068 31.123 16.0938C31.1361 15.9505 31.1784 15.8105 31.25 15.6738C31.3216 15.5371 31.416 15.4167 31.5332 15.3125C31.6504 15.2083 31.7806 15.1302 31.9238 15.0781C32.0671 15.026 32.2168 15 32.373 15ZM44.9902 16.25H32.373L31.2598 26.25H46.1035L44.9902 16.25ZM38.6816 13.125C38.3561 13.125 38.0371 13.1868 37.7246 13.3105C37.4121 13.4342 37.1387 13.6133 36.9043 13.8477C36.6699 14.082 36.4909 14.3555 36.3672 14.668C36.2435 14.9805 36.1816 15.2995 36.1816 15.625V18.125C36.1816 18.2943 36.1198 18.4408 35.9961 18.5645C35.8724 18.6882 35.7259 18.75 35.5566 18.75C35.3874 18.75 35.2409 18.6882 35.1172 18.5645C34.9935 18.4408 34.9316 18.2943 34.9316 18.125V15.625C34.9316 15.1302 35.026 14.6517 35.2148 14.1895C35.4036 13.7272 35.6738 13.3203 36.0254 12.9688C36.377 12.6172 36.7839 12.347 37.2461 12.1582C37.7083 11.9694 38.1868 11.875 38.6816 11.875C39.1764 11.875 39.6549 11.9694 40.1172 12.1582C40.5794 12.347 40.9863 12.6172 41.3379 12.9688C41.6895 13.3203 41.9596 13.7272 42.1484 14.1895C42.3372 14.6517 42.4316 15.1302 42.4316 15.625V18.125C42.4316 18.2943 42.3698 18.4408 42.2461 18.5645C42.1224 18.6882 41.9759 18.75 41.8066 18.75C41.6374 18.75 41.4909 18.6882 41.3672 18.5645C41.2435 18.4408 41.1816 18.2943 41.1816 18.125V15.625C41.1816 15.2995 41.1198 14.9805 40.9961 14.668C40.8724 14.3555 40.6934 14.082 40.459 13.8477C40.2246 13.6133 39.9512 13.4342 39.6387 13.3105C39.3262 13.1868 39.0072 13.125 38.6816 13.125Z" fill="black"/>
<rect x="42" width="18" height="18" rx="9" fill="#2EBB77"/>
<path d="M51.2011 13.144C50.4891 13.144 49.8651 12.952 49.3291 12.568C48.8011 12.176 48.3891 11.636 48.0931 10.948C47.7971 10.252 47.6491 9.444 47.6491 8.524C47.6491 7.604 47.7971 6.8 48.0931 6.112C48.3891 5.416 48.8011 4.876 49.3291 4.492C49.8571 4.108 50.4771 3.916 51.1891 3.916C51.9011 3.916 52.5211 4.108 53.0491 4.492C53.5771 4.876 53.9891 5.416 54.2851 6.112C54.5891 6.8 54.7411 7.604 54.7411 8.524C54.7411 9.444 54.5931 10.252 54.2971 10.948C54.0011 11.644 53.5851 12.184 53.0491 12.568C52.5211 12.952 51.9051 13.144 51.2011 13.144ZM51.2011 12.052C51.6811 12.052 52.0971 11.908 52.4491 11.62C52.8011 11.324 53.0731 10.912 53.2651 10.384C53.4651 9.856 53.5651 9.236 53.5651 8.524C53.5651 7.812 53.4651 7.192 53.2651 6.664C53.0731 6.136 52.7971 5.728 52.4371 5.44C52.0851 5.152 51.6691 5.008 51.1891 5.008C50.7091 5.008 50.2931 5.152 49.9411 5.44C49.5891 5.728 49.3131 6.136 49.1131 6.664C48.9211 7.192 48.8251 7.812 48.8251 8.524C48.8251 9.228 48.9211 9.844 49.1131 10.372C49.3131 10.9 49.5891 11.312 49.9411 11.608C50.3011 11.904 50.7211 12.052 51.2011 12.052Z" fill="white"/>
</svg>
