<svg width="48" height="48" viewBox="0 0 48 48" fill="none" xmlns="http://www.w3.org/2000/svg">
<rect width="48" height="48" rx="24" fill="#F5F5F5"/>
<g clip-path="url(#clip0_8360_21454)">
<path d="M23.2266 15.0625C23.2734 14.8594 23.3867 14.707 23.5664 14.6055C23.7461 14.5039 23.9375 14.4766 24.1406 14.5234C24.8438 14.7109 25.5078 14.9844 26.1328 15.3438C26.7578 15.7031 27.3281 16.1406 27.8438 16.6562C28.3594 17.1719 28.7969 17.7422 29.1562 18.3672C29.5156 18.9922 29.7891 19.6562 29.9766 20.3594C30.0234 20.5625 29.9961 20.7539 29.8945 20.9336C29.793 21.1133 29.6406 21.2266 29.4375 21.2734C29.2344 21.3359 29.0469 21.3125 28.875 21.2031C28.7031 21.0938 28.5859 20.9453 28.5234 20.7578C28.3672 20.1797 28.1406 19.6328 27.8438 19.1172C27.5469 18.6016 27.1875 18.1406 26.7656 17.7344C26.3594 17.3125 25.8984 16.9531 25.3828 16.6562C24.8672 16.3594 24.3203 16.1328 23.7422 15.9766C23.5547 15.9141 23.4062 15.7969 23.2969 15.625C23.1875 15.4531 23.1641 15.2656 23.2266 15.0625ZM22.4297 17.9453C22.4922 17.7578 22.6133 17.6094 22.793 17.5C22.9727 17.3906 23.1641 17.3672 23.3672 17.4297C23.8047 17.5391 24.2227 17.7109 24.6211 17.9453C25.0195 18.1797 25.3828 18.4609 25.7109 18.7891C26.0391 19.1172 26.3203 19.4805 26.5547 19.8789C26.7891 20.2773 26.9609 20.6953 27.0703 21.1328C27.1328 21.3359 27.1094 21.5273 27 21.707C26.8906 21.8867 26.7422 22.0078 26.5547 22.0703C26.3516 22.1172 26.1602 22.0898 25.9805 21.9883C25.8008 21.8867 25.6797 21.7344 25.6172 21.5312C25.5391 21.2031 25.418 20.8984 25.2539 20.6172C25.0898 20.3359 24.8906 20.0781 24.6562 19.8438C24.4219 19.6094 24.1641 19.4102 23.8828 19.2461C23.6016 19.082 23.2969 18.9609 22.9688 18.8828C22.7656 18.8203 22.6133 18.6992 22.5117 18.5195C22.4102 18.3398 22.3828 18.1484 22.4297 17.9453ZM16.5938 13.7969C16.75 13.7812 16.9062 13.7891 17.0625 13.8203C17.2188 13.8516 17.3672 13.9062 17.5078 13.9844C17.6484 14.0625 17.7734 14.1641 17.8828 14.2891C17.9922 14.4141 18.0781 14.5469 18.1406 14.6875L20.0391 19.0938C20.0859 19.2031 20.1172 19.3164 20.1328 19.4336C20.1484 19.5508 20.1562 19.6719 20.1562 19.7969C20.1406 19.9219 20.1133 20.043 20.0742 20.1602C20.0352 20.2773 19.9844 20.3906 19.9219 20.5L18.3516 22.8672C18.6953 23.5859 19.1523 24.2305 19.7227 24.8008C20.293 25.3711 20.9375 25.8281 21.6562 26.1719L24 24.6016C24.0938 24.5391 24.2031 24.4844 24.3281 24.4375C24.4531 24.3906 24.5781 24.3594 24.7031 24.3438C24.8125 24.3438 24.9297 24.3516 25.0547 24.3672C25.1797 24.3828 25.3047 24.4141 25.4297 24.4609L29.8125 26.3594C29.9531 26.4219 30.0859 26.5078 30.2109 26.6172C30.3359 26.7266 30.4375 26.8516 30.5156 26.9922C30.5938 27.1328 30.6484 27.2812 30.6797 27.4375C30.7109 27.5938 30.7188 27.75 30.7031 27.9062C30.625 28.5469 30.4375 29.1484 30.1406 29.7109C29.8438 30.2734 29.4531 30.7656 28.9688 31.1875C28.4844 31.6094 27.9453 31.9336 27.3516 32.1602C26.7578 32.3867 26.1406 32.5 25.5 32.5C24.6094 32.5 23.7266 32.4141 22.8516 32.2422C21.9766 32.0703 21.1367 31.8164 20.332 31.4805C19.5273 31.1445 18.75 30.7266 18 30.2266C17.2656 29.7422 16.5859 29.1797 15.9609 28.5391C15.3203 27.9141 14.7578 27.2344 14.2734 26.5C13.7734 25.75 13.3555 24.9727 13.0195 24.168C12.6836 23.3633 12.4297 22.5234 12.2578 21.6484C12.0859 20.7734 12 19.8906 12 19C12 18.3594 12.1133 17.7422 12.3398 17.1484C12.5664 16.5547 12.8906 16.0156 13.3125 15.5312C13.7344 15.0469 14.2266 14.6562 14.7891 14.3594C15.3516 14.0625 15.9531 13.875 16.5938 13.7969ZM17.6719 23.1953L16.9922 23.5234C16.9453 23.4141 16.9062 23.293 16.875 23.1602C16.8438 23.0273 16.8359 22.8984 16.8516 22.7734C16.8672 22.6484 16.8945 22.5273 16.9336 22.4102C16.9727 22.293 17.0234 22.1797 17.0859 22.0703V22.0469L18.6562 19.6797L16.7578 15.2734C16.3203 15.3359 15.8984 15.4727 15.4922 15.6836C15.0859 15.8945 14.7344 16.1719 14.4375 16.5156C14.1406 16.8594 13.9102 17.2461 13.7461 17.6758C13.582 18.1055 13.5 18.5469 13.5 19L17.6719 23.1953ZM25.5 31C25.9531 31 26.3945 30.918 26.8242 30.7539C27.2539 30.5898 27.6406 30.3594 27.9844 30.0625C28.3281 29.7656 28.6055 29.4141 28.8164 29.0078C29.0273 28.6016 29.1641 28.1797 29.2266 27.7422L24.8203 25.8438L22.5 27.4141C22.4844 27.4141 22.4766 27.4141 22.4766 27.4141C22.3828 27.4922 22.2734 27.5508 22.1484 27.5898C22.0234 27.6289 21.8984 27.6562 21.7734 27.6719C21.6328 27.6719 21.5 27.6602 21.375 27.6367C21.25 27.6133 21.125 27.5781 21 27.5312C20.125 27.1094 19.3438 26.5547 18.6562 25.8672C17.9688 25.1797 17.4141 24.3984 16.9922 23.5234L17.6719 23.1953L25.5 31ZM13.5 19C13.5 19.7969 13.5781 20.5781 13.7344 21.3438C13.8906 22.125 14.1172 22.875 14.4141 23.5938C14.7109 24.3125 15.0781 25 15.5156 25.6562C15.9531 26.3125 16.4531 26.9219 17.0156 27.4844C17.5781 28.0469 18.1875 28.5469 18.8438 28.9844C19.5 29.4219 20.1875 29.7891 20.9062 30.0859C21.625 30.3828 22.375 30.6094 23.1562 30.7656C23.9219 30.9219 24.7031 31 25.5 31L13.5 19Z" fill="black"/>
</g>
<defs>
<clipPath id="clip0_8360_21454">
<rect width="24" height="25" fill="white" transform="matrix(1 0 0 -1 12 36)"/>
</clipPath>
</defs>
</svg>
