<svg width="17" height="17" viewBox="0 0 17 17" fill="none" xmlns="http://www.w3.org/2000/svg">
<path d="M7.1875 1.25C6.36719 1.25 5.59896 1.40625 4.88281 1.71875C4.15365 2.03125 3.52214 2.45443 2.98828 2.98828C2.45443 3.52214 2.03125 4.15365 1.71875 4.88281C1.40625 5.59896 1.25 6.36719 1.25 7.1875C1.25 8.00781 1.40625 8.77604 1.71875 9.49219C2.03125 10.2214 2.45443 10.8529 2.98828 11.3867C3.52214 11.9206 4.15365 12.3438 4.88281 12.6562C5.59896 12.9688 6.36719 13.125 7.1875 13.125C8.00781 13.125 8.77604 12.9688 9.49219 12.6562C10.2214 12.3438 10.8529 11.9206 11.3867 11.3867C11.9206 10.8529 12.3438 10.2214 12.6562 9.49219C12.9688 8.77604 13.125 8.00781 13.125 7.1875C13.125 6.36719 12.9688 5.59896 12.6562 4.88281C12.3438 4.15365 11.9206 3.52214 11.3867 2.98828C10.8529 2.45443 10.2214 2.03125 9.49219 1.71875C8.77604 1.40625 8.00781 1.25 7.1875 1.25ZM0 7.1875C0 6.19792 0.188802 5.26693 0.566406 4.39453C0.94401 3.52214 1.45833 2.76042 2.10938 2.10938C2.76042 1.45833 3.52214 0.944011 4.39453 0.566406C5.26693 0.188803 6.19792 0 7.1875 0C8.17708 0 9.10807 0.188803 9.98047 0.566406C10.8529 0.944011 11.6146 1.45833 12.2656 2.10938C12.9167 2.76042 13.431 3.52214 13.8086 4.39453C14.1862 5.26693 14.375 6.19792 14.375 7.1875C14.375 8.17708 14.1862 9.10807 13.8086 9.98047C13.431 10.8529 12.9167 11.6146 12.2656 12.2656C11.6146 12.9167 10.8529 13.431 9.98047 13.8086C9.10807 14.1862 8.17708 14.375 7.1875 14.375C6.19792 14.375 5.26693 14.1862 4.39453 13.8086C3.52214 13.431 2.76042 12.9167 2.10938 12.2656C1.45833 11.6146 0.94401 10.8529 0.566406 9.98047C0.188802 9.10807 0 8.17708 0 7.1875ZM11.3867 11.3867C11.5039 11.2695 11.6504 11.2109 11.8262 11.2109C12.002 11.2109 12.1484 11.2695 12.2656 11.3867L16.0742 15.1758C16.1914 15.306 16.25 15.4557 16.25 15.625C16.25 15.7943 16.1914 15.944 16.0742 16.0742C15.944 16.1914 15.7943 16.25 15.625 16.25C15.4557 16.25 15.306 16.1914 15.1758 16.0742L11.3867 12.2656C11.2695 12.1484 11.2109 12.002 11.2109 11.8262C11.2109 11.6504 11.2695 11.5039 11.3867 11.3867Z" fill="black"/>
</svg>
