<svg width="60" height="38" viewBox="0 0 60 38" fill="none" xmlns="http://www.w3.org/2000/svg">
<g clip-path="url(#clip0_8360_21464)">
<path d="M38.037 11.4843C38.1412 11.4062 38.2551 11.3476 38.3788 11.3085C38.5025 11.2694 38.6295 11.2499 38.7597 11.2499C38.8899 11.2499 39.0168 11.2694 39.1405 11.3085C39.2642 11.3476 39.3782 11.4062 39.4823 11.4843C39.5995 11.5494 39.6972 11.634 39.7753 11.7382C39.8534 11.8424 39.912 11.953 39.9511 12.0702L41.6698 16.3866C41.6698 16.3996 41.6698 16.4062 41.6698 16.4062C41.6698 16.4062 41.6698 16.4094 41.6698 16.4159C41.6698 16.4224 41.6763 16.4257 41.6894 16.4257L46.2987 16.7187C46.8977 16.7577 47.2818 17.0604 47.4511 17.6269C47.6204 18.1933 47.4836 18.6588 47.0409 19.0233L43.5058 21.9726C43.5058 21.9726 43.5025 21.9758 43.496 21.9823C43.4895 21.9888 43.4862 21.9921 43.4862 21.9921C43.4862 21.9921 43.4862 21.9953 43.4862 22.0019C43.4862 22.0084 43.4862 22.0116 43.4862 22.0116L44.6386 26.5038C44.7688 27.0507 44.606 27.5064 44.1503 27.871C43.6946 28.2356 43.2128 28.2551 42.705 27.9296L38.7597 25.4296L35.0878 27.7538C34.5279 28.1054 33.9973 28.0793 33.496 27.6757C32.9947 27.272 32.8222 26.7707 32.9784 26.1718L34.0331 22.0116C34.0331 22.0116 34.0331 22.0084 34.0331 22.0019C34.0331 21.9953 34.0331 21.9921 34.0331 21.9921C34.0331 21.9921 34.0299 21.9888 34.0234 21.9823C34.0168 21.9758 34.0136 21.9726 34.0136 21.9726L30.4784 19.0233C30.0357 18.6588 29.899 18.1933 30.0683 17.6269C30.2375 17.0604 30.6217 16.7577 31.2206 16.7187L35.83 16.4257C35.843 16.4257 35.8495 16.4224 35.8495 16.4159C35.8495 16.4094 35.8495 16.4062 35.8495 16.4062C35.8495 16.4062 35.8495 16.3996 35.8495 16.3866L37.5683 12.0702C37.6073 11.953 37.6659 11.8424 37.7441 11.7382C37.8222 11.634 37.9198 11.5494 38.037 11.4843ZM39.4433 24.3749L43.3691 26.8749C43.3821 26.8749 43.3886 26.8749 43.3886 26.8749C43.3886 26.8749 43.3951 26.8749 43.4081 26.8749C43.4081 26.8619 43.4114 26.8554 43.4179 26.8554C43.4244 26.8554 43.4277 26.8489 43.4277 26.8358C43.4277 26.8358 43.4277 26.8326 43.4277 26.8261C43.4277 26.8196 43.4277 26.8163 43.4277 26.8163L42.2753 22.3241C42.2493 22.2069 42.2395 22.0865 42.246 21.9628C42.2525 21.8391 42.2753 21.7187 42.3144 21.6015C42.3404 21.4843 42.3892 21.3736 42.4609 21.2694C42.5325 21.1653 42.6138 21.0741 42.705 20.996L46.2402 18.0663C46.2402 18.0533 46.2434 18.0468 46.2499 18.0468C46.2564 18.0468 46.2597 18.0468 46.2597 18.0468C46.2597 18.0468 46.2597 18.0403 46.2597 18.0272C46.2597 18.0272 46.2597 18.024 46.2597 18.0175C46.2597 18.011 46.2597 18.0012 46.2597 17.9882C46.2597 17.9882 46.2564 17.9849 46.2499 17.9784C46.2434 17.9719 46.2402 17.9687 46.2402 17.9687C46.2402 17.9687 46.2336 17.9687 46.2206 17.9687L41.6308 17.6757C41.6308 17.6757 41.6275 17.6757 41.621 17.6757C41.6145 17.6757 41.6112 17.6757 41.6112 17.6757C41.4941 17.6627 41.3769 17.6366 41.2597 17.5976C41.1425 17.5585 41.0383 17.4999 40.9472 17.4218C40.843 17.3437 40.7551 17.259 40.6835 17.1679C40.6119 17.0767 40.55 16.9726 40.498 16.8554L38.7792 12.5194C38.7792 12.5064 38.7792 12.4999 38.7792 12.4999C38.7792 12.4999 38.776 12.4999 38.7694 12.4999C38.7629 12.4999 38.7597 12.4999 38.7597 12.4999C38.7597 12.4999 38.7564 12.4999 38.7499 12.4999C38.7434 12.4999 38.7402 12.4999 38.7402 12.4999C38.7402 12.4999 38.7402 12.5064 38.7402 12.5194L37.0214 16.8554C36.9693 16.9726 36.9075 17.0767 36.8359 17.1679C36.7642 17.259 36.6763 17.3437 36.5722 17.4218C36.481 17.4999 36.3769 17.5585 36.2597 17.5976C36.1425 17.6366 36.0253 17.6627 35.9081 17.6757L31.2987 17.9687C31.2857 17.9687 31.2792 17.9687 31.2792 17.9687C31.2792 17.9687 31.276 17.9719 31.2694 17.9784C31.2629 17.9849 31.2597 17.9882 31.2597 17.9882C31.2597 18.0012 31.2597 18.011 31.2597 18.0175C31.2597 18.024 31.2597 18.0272 31.2597 18.0272C31.2597 18.0403 31.2597 18.0468 31.2597 18.0468C31.2597 18.0468 31.2629 18.0468 31.2694 18.0468C31.276 18.0468 31.2792 18.0533 31.2792 18.0663L34.8144 20.996C34.9055 21.0741 34.9869 21.1653 35.0585 21.2694C35.1301 21.3736 35.179 21.4843 35.205 21.6015C35.2441 21.7187 35.2668 21.8391 35.2734 21.9628C35.2799 22.0865 35.2701 22.2069 35.2441 22.3241L34.1894 26.4843C34.1763 26.5233 34.1763 26.5624 34.1894 26.6015C34.2024 26.6405 34.2219 26.6666 34.248 26.6796C34.261 26.6926 34.274 26.7024 34.287 26.7089C34.3 26.7154 34.3131 26.7187 34.3261 26.7187C34.3391 26.7187 34.3521 26.7187 34.3652 26.7187C34.3782 26.7187 34.3977 26.7121 34.4237 26.6991L38.0761 24.3749C38.1803 24.3098 38.2909 24.261 38.4081 24.2284C38.5253 24.1959 38.6425 24.1796 38.7597 24.1796C38.8769 24.1796 38.9941 24.1959 39.1112 24.2284C39.2284 24.261 39.3391 24.3098 39.4433 24.3749Z" fill="black"/>
</g>
<rect x="42" width="18" height="18" rx="9" fill="#2EBB77"/>
<path d="M51.2011 13.144C50.4891 13.144 49.8651 12.952 49.3291 12.568C48.8011 12.176 48.3891 11.636 48.0931 10.948C47.7971 10.252 47.6491 9.444 47.6491 8.524C47.6491 7.604 47.7971 6.8 48.0931 6.112C48.3891 5.416 48.8011 4.876 49.3291 4.492C49.8571 4.108 50.4771 3.916 51.1891 3.916C51.9011 3.916 52.5211 4.108 53.0491 4.492C53.5771 4.876 53.9891 5.416 54.2851 6.112C54.5891 6.8 54.7411 7.604 54.7411 8.524C54.7411 9.444 54.5931 10.252 54.2971 10.948C54.0011 11.644 53.5851 12.184 53.0491 12.568C52.5211 12.952 51.9051 13.144 51.2011 13.144ZM51.2011 12.052C51.6811 12.052 52.0971 11.908 52.4491 11.62C52.8011 11.324 53.0731 10.912 53.2651 10.384C53.4651 9.856 53.5651 9.236 53.5651 8.524C53.5651 7.812 53.4651 7.192 53.2651 6.664C53.0731 6.136 52.7971 5.728 52.4371 5.44C52.0851 5.152 51.6691 5.008 51.1891 5.008C50.7091 5.008 50.2931 5.152 49.9411 5.44C49.5891 5.728 49.3131 6.136 49.1131 6.664C48.9211 7.192 48.8251 7.812 48.8251 8.524C48.8251 9.228 48.9211 9.844 49.1131 10.372C49.3131 10.9 49.5891 11.312 49.9411 11.608C50.3011 11.904 50.7211 12.052 51.2011 12.052Z" fill="white"/>
<defs>
<clipPath id="clip0_8360_21464">
<rect width="20" height="20" fill="white" transform="matrix(1 0 0 -1 30 30)"/>
</clipPath>
</defs>
</svg>
