<svg width="50" height="36" viewBox="0 0 50 36" fill="none" xmlns="http://www.w3.org/2000/svg">
<path d="M38.199 11.125C37.6001 11.125 37.0336 11.2421 36.4998 11.4765C35.9659 11.6979 35.5004 12.0071 35.1033 12.4043C34.7062 12.8014 34.3969 13.2669 34.1756 13.8007C33.9412 14.3346 33.824 14.901 33.824 15.5C33.824 16.0989 33.9412 16.6653 34.1756 17.1992C34.3969 17.733 34.7062 18.1985 35.1033 18.5957C35.5004 18.9928 35.9659 19.302 36.4998 19.5234C37.0336 19.7578 37.6001 19.875 38.199 19.875C38.798 19.875 39.3644 19.7578 39.8982 19.5234C40.4321 19.302 40.8976 18.9928 41.2947 18.5957C41.6919 18.1985 42.0011 17.733 42.2225 17.1992C42.4568 16.6653 42.574 16.0989 42.574 15.5C42.574 14.901 42.4568 14.3346 42.2225 13.8007C42.0011 13.2669 41.6919 12.8014 41.2947 12.4043C40.8976 12.0071 40.4321 11.6979 39.8982 11.4765C39.3644 11.2421 38.798 11.125 38.199 11.125ZM32.574 15.5C32.574 14.7187 32.7238 13.9895 33.0232 13.3125C33.3097 12.6224 33.7068 12.0234 34.2146 11.5156C34.7225 11.0078 35.3214 10.6106 36.0115 10.3242C36.6886 10.0247 37.4178 9.87496 38.199 9.87496C38.9803 9.87496 39.7094 10.0247 40.3865 10.3242C41.0766 10.6106 41.6756 11.0078 42.1834 11.5156C42.6912 12.0234 43.0883 12.6224 43.3748 13.3125C43.6743 13.9895 43.824 14.7187 43.824 15.5C43.824 16.2812 43.6743 17.0104 43.3748 17.6875C43.0883 18.3776 42.6912 18.9765 42.1834 19.4843C41.6756 19.9921 41.0766 20.3893 40.3865 20.6757C39.7094 20.9752 38.9803 21.125 38.199 21.125C37.4178 21.125 36.6886 20.9752 36.0115 20.6757C35.3214 20.3893 34.7225 19.9921 34.2146 19.4843C33.7068 18.9765 33.3097 18.3776 33.0232 17.6875C32.7238 17.0104 32.574 16.2812 32.574 15.5ZM38.199 21.125C37.4829 21.125 36.7797 21.2161 36.0896 21.3984C35.3995 21.5807 34.7485 21.8541 34.1365 22.2187C33.5245 22.5703 32.9646 23 32.4568 23.5078C31.949 24.0156 31.5193 24.5755 31.1678 25.1875C31.0766 25.3307 30.9464 25.4251 30.7771 25.4707C30.6079 25.5162 30.4516 25.5 30.3084 25.4218C30.1652 25.3307 30.0708 25.2005 30.0252 25.0312C29.9796 24.8619 29.9959 24.7057 30.074 24.5625C30.4907 23.8463 30.9887 23.1985 31.5682 22.6191C32.1476 22.0397 32.7954 21.5416 33.5115 21.125C34.2277 20.7213 34.9829 20.4121 35.7771 20.1972C36.5714 19.9824 37.3787 19.875 38.199 19.875C39.0193 19.875 39.8266 19.9824 40.6209 20.1972C41.4152 20.4121 42.1704 20.7213 42.8865 21.125C43.6027 21.5416 44.2504 22.0397 44.8299 22.6191C45.4093 23.1985 45.9073 23.8463 46.324 24.5625C46.4021 24.7057 46.4184 24.8619 46.3728 25.0312C46.3273 25.2005 46.2329 25.3307 46.0896 25.4218C45.9464 25.5 45.7902 25.5162 45.6209 25.4707C45.4516 25.4251 45.3214 25.3307 45.2303 25.1875C44.8787 24.5755 44.449 24.0156 43.9412 23.5078C43.4334 23 42.8735 22.5703 42.2615 22.2187C41.6495 21.8541 40.9985 21.5807 40.3084 21.3984C39.6183 21.2161 38.9152 21.125 38.199 21.125Z" fill="black"/>
</svg>
