<svg width="17" height="16" viewBox="0 0 17 16" fill="none" xmlns="http://www.w3.org/2000/svg">
<path d="M8.19901 1.24996C7.60005 1.24996 7.03365 1.36715 6.49979 1.60152C5.96594 1.82288 5.50045 2.13212 5.10331 2.52926C4.70617 2.92639 4.39693 3.39189 4.17558 3.92574C3.9412 4.4596 3.82401 5.026 3.82401 5.62496C3.82401 6.22392 3.9412 6.79033 4.17558 7.32418C4.39693 7.85803 4.70617 8.32353 5.10331 8.72066C5.50045 9.1178 5.96594 9.42704 6.49979 9.6484C7.03365 9.88277 7.60005 9.99996 8.19901 9.99996C8.79797 9.99996 9.36438 9.88277 9.89823 9.6484C10.4321 9.42704 10.8976 9.1178 11.2947 8.72066C11.6919 8.32353 12.0011 7.85803 12.2225 7.32418C12.4568 6.79033 12.574 6.22392 12.574 5.62496C12.574 5.026 12.4568 4.4596 12.2225 3.92574C12.0011 3.39189 11.6919 2.92639 11.2947 2.52926C10.8976 2.13212 10.4321 1.82288 9.89823 1.60152C9.36438 1.36715 8.79797 1.24996 8.19901 1.24996ZM2.57401 5.62496C2.57401 4.84371 2.72375 4.11454 3.02323 3.43746C3.30969 2.74736 3.70683 2.1484 4.21464 1.64059C4.72245 1.13277 5.32141 0.735639 6.01151 0.44918C6.6886 0.149701 7.41776 -3.91006e-05 8.19901 -3.91006e-05C8.98026 -3.91006e-05 9.70943 0.149701 10.3865 0.44918C11.0766 0.735639 11.6756 1.13277 12.1834 1.64059C12.6912 2.1484 13.0883 2.74736 13.3748 3.43746C13.6743 4.11454 13.824 4.84371 13.824 5.62496C13.824 6.40621 13.6743 7.13538 13.3748 7.81246C13.0883 8.50257 12.6912 9.10152 12.1834 9.60934C11.6756 10.1171 11.0766 10.5143 10.3865 10.8007C9.70943 11.1002 8.98026 11.25 8.19901 11.25C7.41776 11.25 6.6886 11.1002 6.01151 10.8007C5.32141 10.5143 4.72245 10.1171 4.21464 9.60934C3.70683 9.10152 3.30969 8.50257 3.02323 7.81246C2.72375 7.13538 2.57401 6.40621 2.57401 5.62496ZM8.19901 11.25C7.48287 11.25 6.77974 11.3411 6.08964 11.5234C5.39953 11.7057 4.74849 11.9791 4.13651 12.3437C3.52453 12.6953 2.96464 13.125 2.45683 13.6328C1.94901 14.1406 1.51933 14.7005 1.16776 15.3125C1.07662 15.4557 0.946409 15.5501 0.777138 15.5957C0.607867 15.6412 0.451617 15.625 0.308388 15.5468C0.165159 15.4557 0.0707579 15.3255 0.025185 15.1562C-0.0203879 14.9869 -0.00411185 14.8307 0.0740132 14.6875C0.49068 13.9713 0.988727 13.3235 1.56815 12.7441C2.14758 12.1647 2.79537 11.6666 3.51151 11.25C4.22766 10.8463 4.98287 10.5371 5.77714 10.3222C6.57141 10.1074 7.3787 9.99996 8.19901 9.99996C9.01933 9.99996 9.82662 10.1074 10.6209 10.3222C11.4152 10.5371 12.1704 10.8463 12.8865 11.25C13.6027 11.6666 14.2504 12.1647 14.8299 12.7441C15.4093 13.3235 15.9073 13.9713 16.324 14.6875C16.4021 14.8307 16.4184 14.9869 16.3728 15.1562C16.3273 15.3255 16.2329 15.4557 16.0896 15.5468C15.9464 15.625 15.7902 15.6412 15.6209 15.5957C15.4516 15.5501 15.3214 15.4557 15.2303 15.3125C14.8787 14.7005 14.449 14.1406 13.9412 13.6328C13.4334 13.125 12.8735 12.6953 12.2615 12.3437C11.6495 11.9791 10.9985 11.7057 10.3084 11.5234C9.61828 11.3411 8.91516 11.25 8.19901 11.25Z" fill="black"/>
</svg>
