<svg width="18" height="16" viewBox="0 0 18 16" fill="none" xmlns="http://www.w3.org/2000/svg">
<path d="M2.37305 3.125H14.9902C15.1465 3.125 15.2962 3.15104 15.4395 3.20312C15.5827 3.25521 15.7129 3.33333 15.8301 3.4375C15.9473 3.54167 16.0417 3.66211 16.1133 3.79883C16.1849 3.93555 16.2272 4.07552 16.2402 4.21875C16.2402 4.23177 16.2402 4.23828 16.2402 4.23828L17.3535 14.2383C17.3665 14.3294 17.3665 14.4173 17.3535 14.502C17.3405 14.5866 17.321 14.668 17.2949 14.7461C17.2689 14.8372 17.2363 14.9186 17.1973 14.9902C17.1582 15.0618 17.1061 15.1302 17.041 15.1953C16.9889 15.2734 16.9271 15.3385 16.8555 15.3906C16.7839 15.4427 16.709 15.4818 16.6309 15.5078C16.5397 15.5469 16.4518 15.5762 16.3672 15.5957C16.2826 15.6152 16.2012 15.625 16.123 15.625H1.24023C1.16211 15.625 1.08073 15.6152 0.996094 15.5957C0.911458 15.5762 0.823568 15.5469 0.732422 15.5078C0.654297 15.4818 0.579427 15.4427 0.507812 15.3906C0.436198 15.3385 0.374349 15.2734 0.322266 15.1953C0.257161 15.1302 0.205078 15.0618 0.166016 14.9902C0.126953 14.9186 0.094401 14.8372 0.0683594 14.7461C0.0423177 14.668 0.0227865 14.5866 0.00976562 14.502C-0.00325521 14.4173 -0.00325521 14.3294 0.00976562 14.2383L1.12305 4.23828C1.12305 4.23828 1.12305 4.23177 1.12305 4.21875C1.13607 4.07552 1.17839 3.93555 1.25 3.79883C1.32161 3.66211 1.41602 3.54167 1.5332 3.4375C1.65039 3.33333 1.7806 3.25521 1.92383 3.20312C2.06706 3.15104 2.2168 3.125 2.37305 3.125ZM14.9902 4.375H2.37305L1.25977 14.375H16.1035L14.9902 4.375ZM8.68164 1.25C8.35612 1.25 8.03711 1.31185 7.72461 1.43555C7.41211 1.55925 7.13867 1.73828 6.9043 1.97266C6.66992 2.20703 6.49089 2.48047 6.36719 2.79297C6.24349 3.10547 6.18164 3.42448 6.18164 3.75V6.25C6.18164 6.41927 6.11979 6.56575 5.99609 6.68945C5.8724 6.81315 5.72591 6.875 5.55664 6.875C5.38737 6.875 5.24089 6.81315 5.11719 6.68945C4.99349 6.56575 4.93164 6.41927 4.93164 6.25V3.75C4.93164 3.25521 5.02604 2.77669 5.21484 2.31445C5.40365 1.85221 5.67383 1.44531 6.02539 1.09375C6.37695 0.742188 6.78385 0.472005 7.24609 0.283203C7.70833 0.0944014 8.18685 0 8.68164 0C9.17643 0 9.65495 0.0944014 10.1172 0.283203C10.5794 0.472005 10.9863 0.742188 11.3379 1.09375C11.6895 1.44531 11.9596 1.85221 12.1484 2.31445C12.3372 2.77669 12.4316 3.25521 12.4316 3.75V6.25C12.4316 6.41927 12.3698 6.56575 12.2461 6.68945C12.1224 6.81315 11.9759 6.875 11.8066 6.875C11.6374 6.875 11.4909 6.81315 11.3672 6.68945C11.2435 6.56575 11.1816 6.41927 11.1816 6.25V3.75C11.1816 3.42448 11.1198 3.10547 10.9961 2.79297C10.8724 2.48047 10.6934 2.20703 10.459 1.97266C10.2246 1.73828 9.95117 1.55925 9.63867 1.43555C9.32617 1.31185 9.00716 1.25 8.68164 1.25Z" fill="black"/>
</svg>
