<svg width="18" height="17" viewBox="0 0 18 17" fill="none" xmlns="http://www.w3.org/2000/svg">
<path d="M8.03703 0.234278C8.14119 0.156153 8.25513 0.097559 8.37882 0.0584965C8.50252 0.019434 8.62947 -9.72748e-05 8.75968 -9.72748e-05C8.88989 -9.72748e-05 9.01684 0.019434 9.14054 0.0584965C9.26424 0.097559 9.37817 0.156153 9.48234 0.234278C9.59953 0.299381 9.69718 0.384018 9.77531 0.488184C9.85343 0.59235 9.91203 0.703028 9.95109 0.820215L11.6698 5.13662C11.6698 5.14964 11.6698 5.15615 11.6698 5.15615C11.6698 5.15615 11.6698 5.15941 11.6698 5.16592C11.6698 5.17243 11.6763 5.17568 11.6894 5.17568L16.2987 5.46865C16.8977 5.50772 17.2818 5.81045 17.4511 6.37686C17.6204 6.94326 17.4836 7.40876 17.0409 7.77334L13.5058 10.7226C13.5058 10.7226 13.5025 10.7258 13.496 10.7323C13.4895 10.7388 13.4862 10.7421 13.4862 10.7421C13.4862 10.7421 13.4862 10.7453 13.4862 10.7519C13.4862 10.7584 13.4862 10.7616 13.4862 10.7616L14.6386 15.2538C14.7688 15.8007 14.606 16.2564 14.1503 16.621C13.6946 16.9856 13.2128 17.0051 12.705 16.6796L8.75968 14.1796L5.08781 16.5038C4.52791 16.8554 3.99731 16.8293 3.49601 16.4257C2.99471 16.022 2.82218 15.5207 2.97843 14.9218L4.03312 10.7616C4.03312 10.7616 4.03312 10.7584 4.03312 10.7519C4.03312 10.7453 4.03312 10.7421 4.03312 10.7421C4.03312 10.7421 4.02986 10.7388 4.02335 10.7323C4.01684 10.7258 4.01359 10.7226 4.01359 10.7226L0.478433 7.77334C0.0357242 7.40876 -0.100995 6.94326 0.0682763 6.37686C0.237547 5.81045 0.621662 5.50772 1.22062 5.46865L5.82999 5.17568C5.84302 5.17568 5.84953 5.17243 5.84953 5.16592C5.84953 5.15941 5.84953 5.15615 5.84953 5.15615C5.84953 5.15615 5.84953 5.14964 5.84953 5.13662L7.56828 0.820215C7.60734 0.703028 7.66593 0.59235 7.74406 0.488184C7.82218 0.384018 7.91984 0.299381 8.03703 0.234278ZM9.44328 13.1249L13.3691 15.6249C13.3821 15.6249 13.3886 15.6249 13.3886 15.6249C13.3886 15.6249 13.3951 15.6249 13.4081 15.6249C13.4081 15.6119 13.4114 15.6054 13.4179 15.6054C13.4244 15.6054 13.4277 15.5989 13.4277 15.5858C13.4277 15.5858 13.4277 15.5826 13.4277 15.5761C13.4277 15.5696 13.4277 15.5663 13.4277 15.5663L12.2753 11.0741C12.2493 10.9569 12.2395 10.8365 12.246 10.7128C12.2525 10.5891 12.2753 10.4687 12.3144 10.3515C12.3404 10.2343 12.3892 10.1236 12.4609 10.0194C12.5325 9.91527 12.6138 9.82412 12.705 9.746L16.2402 6.81631C16.2402 6.80329 16.2434 6.79678 16.2499 6.79678C16.2564 6.79678 16.2597 6.79678 16.2597 6.79678C16.2597 6.79678 16.2597 6.79027 16.2597 6.77725C16.2597 6.77725 16.2597 6.77399 16.2597 6.76748C16.2597 6.76097 16.2597 6.7512 16.2597 6.73818C16.2597 6.73818 16.2564 6.73493 16.2499 6.72842C16.2434 6.72191 16.2402 6.71865 16.2402 6.71865C16.2402 6.71865 16.2336 6.71865 16.2206 6.71865L11.6308 6.42568C11.6308 6.42568 11.6275 6.42568 11.621 6.42568C11.6145 6.42568 11.6112 6.42568 11.6112 6.42568C11.4941 6.41266 11.3769 6.38662 11.2597 6.34756C11.1425 6.3085 11.0383 6.2499 10.9472 6.17178C10.843 6.09365 10.7551 6.00902 10.6835 5.91787C10.6119 5.82673 10.55 5.72256 10.498 5.60537L8.77921 1.26943C8.77921 1.25641 8.77921 1.2499 8.77921 1.2499C8.77921 1.2499 8.77596 1.2499 8.76945 1.2499C8.76294 1.2499 8.75968 1.2499 8.75968 1.2499C8.75968 1.2499 8.75643 1.2499 8.74992 1.2499C8.74341 1.2499 8.74015 1.2499 8.74015 1.2499C8.74015 1.2499 8.74015 1.25641 8.74015 1.26943L7.0214 5.60537C6.96932 5.72256 6.90747 5.82673 6.83585 5.91787C6.76424 6.00902 6.67635 6.09365 6.57218 6.17178C6.48104 6.2499 6.37687 6.3085 6.25968 6.34756C6.14249 6.38662 6.02531 6.41266 5.90812 6.42568L1.29874 6.71865C1.28572 6.71865 1.27921 6.71865 1.27921 6.71865C1.27921 6.71865 1.27596 6.72191 1.26945 6.72842C1.26294 6.73493 1.25968 6.73818 1.25968 6.73818C1.25968 6.7512 1.25968 6.76097 1.25968 6.76748C1.25968 6.77399 1.25968 6.77725 1.25968 6.77725C1.25968 6.79027 1.25968 6.79678 1.25968 6.79678C1.25968 6.79678 1.26294 6.79678 1.26945 6.79678C1.27596 6.79678 1.27921 6.80329 1.27921 6.81631L4.81437 9.746C4.90552 9.82412 4.9869 9.91527 5.05851 10.0194C5.13013 10.1236 5.17895 10.2343 5.20499 10.3515C5.24406 10.4687 5.26684 10.5891 5.27335 10.7128C5.27986 10.8365 5.2701 10.9569 5.24406 11.0741L4.18937 15.2343C4.17635 15.2733 4.17635 15.3124 4.18937 15.3515C4.20239 15.3905 4.22192 15.4166 4.24796 15.4296C4.26098 15.4426 4.27401 15.4524 4.28703 15.4589C4.30005 15.4654 4.31307 15.4687 4.32609 15.4687C4.33911 15.4687 4.35213 15.4687 4.36515 15.4687C4.37817 15.4687 4.3977 15.4621 4.42375 15.4491L8.07609 13.1249C8.18025 13.0598 8.29093 13.011 8.40812 12.9784C8.52531 12.9459 8.6425 12.9296 8.75968 12.9296C8.87687 12.9296 8.99406 12.9459 9.11125 12.9784C9.22843 13.011 9.33911 13.0598 9.44328 13.1249Z" fill="black"/>
</svg>
