<svg width="435" height="181" viewBox="0 0 435 181" fill="none" xmlns="http://www.w3.org/2000/svg">
<path d="M413.908 4.02802C413.097 -1.30671 406.758 -1.09094 406.468 3.19471C405.486 16.3865 396.386 33.0305 384.578 41.4753C384.52 41.5182 384.473 41.5742 384.44 41.6388C384.407 41.7035 384.39 41.7749 384.39 41.8474C384.39 41.9198 384.407 41.9913 384.44 42.0559C384.473 42.1205 384.52 42.1765 384.578 42.2194C384.763 42.3739 384.979 42.487 385.212 42.5512C385.444 42.6153 385.687 42.6291 385.925 42.5914C393.313 41.4084 406.996 32.6064 407.443 25.6869C401.252 121.072 329.431 145.782 245.704 143.52C202.595 143.587 159.984 133.26 116.912 132.776C74.6504 133.193 27.7985 144.681 0.179882 178.824C0.100368 178.917 0.044802 179.027 0.0180781 179.146C-0.00864575 179.265 -0.00569938 179.389 0.0266383 179.507C0.058976 179.624 0.119731 179.732 0.203542 179.821C0.287353 179.909 0.391643 179.976 0.50726 180.015C0.707833 180.091 0.926962 180.103 1.1347 180.05C1.34244 179.996 1.52865 179.88 1.66795 179.717C29.7776 147.009 75.2754 136.89 116.822 137.635C159.976 139.294 202 151.027 245.362 151.935C333.627 157.694 413.068 130.358 411.758 26.9369C411.803 29.9576 424.05 42.9783 433.826 43.4024C434.106 43.4145 434.381 43.3223 434.596 43.1436C434.812 42.9649 434.954 42.7124 434.994 42.4351V42.3979C435.016 42.2396 434.975 42.079 434.881 41.9499C434.787 41.8209 434.646 41.7334 434.488 41.706C423.707 39.4962 415.523 14.7645 413.908 4.02802Z" fill="#231F20"/>
</svg>
